<svg xmlns="http://www.w3.org/2000/svg" xmlns:xlink="http://www.w3.org/1999/xlink" width="1175" zoomAndPan="magnify" viewBox="0 0 881.25 525.000007" height="700" preserveAspectRatio="xMidYMid meet" version="1.0"><defs><g/><clipPath id="id1"><path d="M 0.464844 0 L 880.039062 0 L 880.039062 524 L 0.464844 524 Z M 0.464844 0 " clip-rule="nonzero"/></clipPath><clipPath id="id2"><path d="M 353.003906 203 L 527.421875 203 L 527.421875 271 L 353.003906 271 Z M 353.003906 203 " clip-rule="nonzero"/></clipPath></defs><g clip-path="url(#id1)"><path fill="#ffffff" d="M 0.464844 0 L 880.785156 0 L 880.785156 531.488281 L 0.464844 531.488281 Z M 0.464844 0 " fill-opacity="1" fill-rule="nonzero"/><path fill="#fffdf0" d="M 0.464844 0 L 880.039062 0 L 880.039062 524 L 0.464844 524 Z M 0.464844 0 " fill-opacity="1" fill-rule="nonzero"/><path fill="#ffffff" d="M 0.464844 0 L 880.039062 0 L 880.039062 524 L 0.464844 524 Z M 0.464844 0 " fill-opacity="1" fill-rule="nonzero"/><path fill="#fffdf0" d="M 0.464844 0 L 880.039062 0 L 880.039062 524 L 0.464844 524 Z M 0.464844 0 " fill-opacity="1" fill-rule="nonzero"/></g><g fill="#ff7d5a" fill-opacity="1"><g transform="translate(364.736954, 188.487865)"><g><path d="M 3.0625 0 L 3.0625 -28.359375 L 6.796875 -28.359375 L 6.796875 0 Z M 3.0625 0 "/></g></g></g><g fill="#ff7d5a" fill-opacity="1"><g transform="translate(374.600665, 188.487865)"><g><path d="M 32 -28.359375 L 32 0 L 28.234375 0 L 28.234375 -20.671875 L 18.75 0 L 16.328125 0 L 6.796875 -20.671875 L 6.796875 0 L 3.0625 0 L 3.0625 -28.359375 L 6.875 -28.359375 L 17.5625 -5.109375 L 28.1875 -28.359375 Z M 32 -28.359375 "/></g></g></g><g fill="#ff7d5a" fill-opacity="1"><g transform="translate(409.676191, 188.487865)"><g><path d="M 12.28125 -28.359375 C 15.46875 -28.359375 17.898438 -27.578125 19.578125 -26.015625 C 21.253906 -24.460938 22.09375 -22.472656 22.09375 -20.046875 C 22.09375 -17.617188 21.28125 -15.617188 19.65625 -14.046875 C 18.039062 -12.484375 15.582031 -11.703125 12.28125 -11.703125 L 6.796875 -11.703125 L 6.796875 0 L 3.0625 0 L 3.0625 -28.359375 Z M 6.796875 -14.65625 L 12.28125 -14.65625 C 14.320312 -14.65625 15.835938 -15.125 16.828125 -16.0625 C 17.828125 -17 18.328125 -18.316406 18.328125 -20.015625 C 18.328125 -23.585938 16.3125 -25.375 12.28125 -25.375 L 6.796875 -25.375 Z M 6.796875 -14.65625 "/></g></g></g><g fill="#ff7d5a" fill-opacity="1"><g transform="translate(433.332729, 188.487865)"><g><path d="M 22.625 0 L 20.421875 -6.21875 L 7.8125 -6.21875 L 5.609375 0 L 1.796875 0 L 12.109375 -28.359375 L 16.203125 -28.359375 L 26.46875 0 Z M 8.875 -9.171875 L 19.359375 -9.171875 L 14.125 -23.8125 Z M 8.875 -9.171875 "/></g></g></g><g fill="#ff7d5a" fill-opacity="1"><g transform="translate(461.614165, 188.487865)"><g><path d="M 16.046875 0.25 C 11.972656 0.25 8.546875 -1.113281 5.765625 -3.84375 C 2.984375 -6.570312 1.59375 -10.03125 1.59375 -14.21875 C 1.59375 -18.40625 2.984375 -21.851562 5.765625 -24.5625 C 8.546875 -27.28125 11.972656 -28.640625 16.046875 -28.640625 C 18.992188 -28.640625 21.617188 -27.941406 23.921875 -26.546875 C 26.222656 -25.160156 27.921875 -23.160156 29.015625 -20.546875 L 24.515625 -20.546875 C 22.816406 -23.734375 19.992188 -25.328125 16.046875 -25.328125 C 12.960938 -25.328125 10.414062 -24.3125 8.40625 -22.28125 C 6.40625 -20.25 5.40625 -17.554688 5.40625 -14.203125 C 5.40625 -10.847656 6.40625 -8.144531 8.40625 -6.09375 C 10.414062 -4.050781 12.960938 -3.03125 16.046875 -3.03125 C 17.921875 -3.03125 19.59375 -3.445312 21.0625 -4.28125 C 22.539062 -5.113281 23.691406 -6.304688 24.515625 -7.859375 L 29.015625 -7.859375 C 27.921875 -5.234375 26.222656 -3.222656 23.921875 -1.828125 C 21.617188 -0.441406 18.992188 0.25 16.046875 0.25 Z M 16.046875 0.25 "/></g></g></g><g fill="#ff7d5a" fill-opacity="1"><g transform="translate(493.415432, 188.487865)"><g><path d="M 1.796875 -25.375 L 1.796875 -28.359375 L 20.5 -28.359375 L 20.5 -25.375 L 13.015625 -25.375 L 13.015625 0 L 9.296875 0 L 9.296875 -25.375 Z M 1.796875 -25.375 "/></g></g></g><g fill="#ff7d5a" fill-opacity="1"><g transform="translate(440.250711, 245.44032)"><g/></g></g><g fill="#ff7d5a" fill-opacity="1"><g transform="translate(440.250711, 302.392774)"><g/></g></g><g fill="#ff7d5a" fill-opacity="1"><g transform="translate(334.247448, 359.345229)"><g/></g></g><g fill="#ff7d5a" fill-opacity="1"><g transform="translate(346.522772, 359.345229)"><g><path d="M 1.796875 -25.375 L 1.796875 -28.359375 L 20.5 -28.359375 L 20.5 -25.375 L 13.015625 -25.375 L 13.015625 0 L 9.296875 0 L 9.296875 -25.375 Z M 1.796875 -25.375 "/></g></g></g><g fill="#ff7d5a" fill-opacity="1"><g transform="translate(368.869608, 359.345229)"><g><path d="M 3.03125 -9.9375 L 3.03125 -28.359375 L 6.796875 -28.359375 L 6.796875 -9.9375 C 6.796875 -7.59375 7.414062 -5.84375 8.65625 -4.6875 C 9.894531 -3.53125 11.601562 -2.953125 13.78125 -2.953125 C 15.96875 -2.953125 17.6875 -3.53125 18.9375 -4.6875 C 20.195312 -5.84375 20.828125 -7.59375 20.828125 -9.9375 L 20.828125 -28.359375 L 24.546875 -28.359375 L 24.546875 -9.9375 C 24.546875 -6.613281 23.53125 -4.078125 21.5 -2.328125 C 19.46875 -0.585938 16.890625 0.28125 13.765625 0.28125 C 10.640625 0.28125 8.066406 -0.585938 6.046875 -2.328125 C 4.035156 -4.078125 3.03125 -6.613281 3.03125 -9.9375 Z M 3.03125 -9.9375 "/></g></g></g><g fill="#ff7d5a" fill-opacity="1"><g transform="translate(396.414332, 359.345229)"><g><path d="M 1.796875 -25.375 L 1.796875 -28.359375 L 20.5 -28.359375 L 20.5 -25.375 L 13.015625 -25.375 L 13.015625 0 L 9.296875 0 L 9.296875 -25.375 Z M 1.796875 -25.375 "/></g></g></g><g fill="#ff7d5a" fill-opacity="1"><g transform="translate(418.761169, 359.345229)"><g><path d="M 23.65625 -6.09375 C 25.644531 -8.144531 26.640625 -10.847656 26.640625 -14.203125 C 26.640625 -17.554688 25.644531 -20.25 23.65625 -22.28125 C 21.664062 -24.3125 19.117188 -25.328125 16.015625 -25.328125 C 12.921875 -25.328125 10.367188 -24.3125 8.359375 -22.28125 C 6.359375 -20.25 5.359375 -17.554688 5.359375 -14.203125 C 5.359375 -10.847656 6.367188 -8.144531 8.390625 -6.09375 C 10.410156 -4.050781 12.960938 -3.03125 16.046875 -3.03125 C 19.128906 -3.03125 21.664062 -4.050781 23.65625 -6.09375 Z M 16.03125 0.28125 C 11.96875 0.28125 8.546875 -1.085938 5.765625 -3.828125 C 2.984375 -6.566406 1.59375 -10.03125 1.59375 -14.21875 C 1.59375 -18.40625 2.984375 -21.851562 5.765625 -24.5625 C 8.546875 -27.28125 11.96875 -28.640625 16.03125 -28.640625 C 20.101562 -28.640625 23.523438 -27.28125 26.296875 -24.5625 C 29.066406 -21.851562 30.453125 -18.394531 30.453125 -14.1875 C 30.453125 -9.988281 29.066406 -6.523438 26.296875 -3.796875 C 23.523438 -1.078125 20.101562 0.28125 16.03125 0.28125 Z M 16.03125 0.28125 "/></g></g></g><g fill="#ff7d5a" fill-opacity="1"><g transform="translate(450.767076, 359.345229)"><g><path d="M 6.796875 -11.703125 L 6.796875 0 L 3.0625 0 L 3.0625 -28.359375 L 12.28125 -28.359375 C 15.46875 -28.359375 17.898438 -27.578125 19.578125 -26.015625 C 21.253906 -24.460938 22.09375 -22.5625 22.09375 -20.3125 C 22.09375 -18.0625 21.476562 -16.1875 20.25 -14.6875 C 19.03125 -13.1875 17.191406 -12.25 14.734375 -11.875 L 22.546875 0 L 17.890625 0 L 10.4375 -11.703125 Z M 6.796875 -25.375 L 6.796875 -14.65625 L 12.28125 -14.65625 C 14.320312 -14.65625 15.835938 -15.125 16.828125 -16.0625 C 17.828125 -17 18.328125 -18.316406 18.328125 -20.015625 C 18.328125 -23.585938 16.3125 -25.375 12.28125 -25.375 Z M 6.796875 -25.375 "/></g></g></g><g fill="#ff7d5a" fill-opacity="1"><g transform="translate(476.019822, 359.345229)"><g><path d="M 3.0625 0 L 3.0625 -28.359375 L 6.796875 -28.359375 L 6.796875 0 Z M 3.0625 0 "/></g></g></g><g fill="#ff7d5a" fill-opacity="1"><g transform="translate(485.883533, 359.345229)"><g><path d="M 21.765625 -28.359375 L 25.5 -28.359375 L 25.5 0 L 21.765625 0 L 6.796875 -22.5 L 6.796875 0 L 3.0625 0 L 3.0625 -28.359375 L 6.796875 -28.359375 L 21.765625 -5.859375 Z M 21.765625 -28.359375 "/></g></g></g><g fill="#ff7d5a" fill-opacity="1"><g transform="translate(514.451457, 359.345229)"><g><path d="M 15.8125 0.25 C 11.894531 0.25 8.546875 -1.113281 5.765625 -3.84375 C 2.984375 -6.570312 1.59375 -10.03125 1.59375 -14.21875 C 1.59375 -18.40625 2.984375 -21.851562 5.765625 -24.5625 C 8.546875 -27.28125 11.972656 -28.640625 16.046875 -28.640625 C 18.992188 -28.640625 21.617188 -27.941406 23.921875 -26.546875 C 26.222656 -25.160156 27.921875 -23.160156 29.015625 -20.546875 L 24.515625 -20.546875 C 22.816406 -23.734375 19.992188 -25.328125 16.046875 -25.328125 C 12.960938 -25.328125 10.414062 -24.3125 8.40625 -22.28125 C 6.40625 -20.25 5.40625 -17.554688 5.40625 -14.203125 C 5.40625 -10.847656 6.40625 -8.144531 8.40625 -6.09375 C 10.414062 -4.050781 12.910156 -3.03125 15.890625 -3.03125 C 18.878906 -3.03125 21.28125 -3.875 23.09375 -5.5625 C 24.914062 -7.257812 25.972656 -9.550781 26.265625 -12.4375 L 14.5625 -12.4375 L 14.5625 -15.390625 L 30.203125 -15.390625 L 30.203125 -12.4375 C 29.816406 -8.78125 28.300781 -5.75 25.65625 -3.34375 C 23.007812 -0.945312 19.726562 0.25 15.8125 0.25 Z M 15.8125 0.25 "/></g></g></g><path fill="#5ce1e6" d="M 372.84375 244.699219 L 372.230469 244.371094 L 372.230469 244.347656 Z M 372.84375 244.699219 " fill-opacity="1" fill-rule="nonzero"/><path fill="#5ce1e6" d="M 483.964844 288.246094 C 482.140625 289.058594 480.238281 289.847656 478.300781 290.222656 C 474.8125 290.890625 471.28125 291.480469 467.75 291.734375 C 461.011719 292.183594 454.253906 292.546875 447.515625 292.886719 C 444.988281 293.027344 442.496094 293.082031 440.003906 293.0625 C 435.988281 293.0625 432.03125 292.886719 427.996094 292.6875 C 422.964844 292.4375 417.976562 292.164062 412.980469 291.734375 C 407.761719 291.253906 402.460938 290.800781 397.496094 288.839844 C 397.320312 288.785156 397.121094 288.75 396.992188 288.664062 C 395.613281 288.050781 393.789062 286.722656 395.527344 285.429688 C 396.675781 284.585938 398.269531 284.332031 399.628906 283.96875 C 402.03125 283.269531 404.539062 282.675781 407.03125 282.28125 C 416.097656 280.84375 425.21875 280.449219 434.382812 280.503906 C 442.914062 280.570312 451.453125 280.394531 459.984375 280.84375 C 466.226562 281.183594 472.460938 282.3125 478.664062 283.234375 C 480.238281 283.464844 481.867188 283.71875 483.300781 284.386719 C 484.839844 285.121094 486.296875 287.207031 483.964844 288.246094 Z M 490.921875 270.996094 C 490.921875 270.941406 490.898438 270.886719 490.898438 270.855469 C 490.726562 267.421875 491.007812 264.042969 490.113281 260.667969 C 489.664062 258.921875 489.183594 257.75 487.671875 256.761719 C 485.902344 255.609375 484.164062 254.394531 482.261719 253.472656 C 477.535156 251.101562 472.605469 249.503906 467.386719 248.40625 C 456.101562 246.070312 444.738281 245.511719 433.320312 245.960938 C 428.554688 246.15625 423.785156 246.496094 419.070312 247.167969 C 411.066406 248.351562 403.269531 250.3125 396.148438 254.339844 C 393.480469 255.828125 391.566406 256.816406 390.8125 259.910156 C 389.042969 267.222656 389.160156 278.683594 388.933594 286.128906 C 388.898438 287.546875 389.433594 288.554688 390.507812 289.257812 C 391.546875 289.957031 392.640625 290.605469 393.820312 291.085938 C 400.777344 293.90625 408.210938 294.71875 415.5625 295.78125 C 419.34375 296.351562 423.226562 296.515625 427.03125 296.625 C 444.039062 297.128906 461.042969 297.109375 477.789062 293.566406 C 481.691406 292.742188 485.421875 291.03125 489.160156 289.5625 C 490.417969 289.058594 491.261719 287.875 491.226562 286.359375 C 491.152344 282.730469 491.117188 274.625 490.921875 270.996094 " fill-opacity="1" fill-rule="nonzero"/><path fill="#5ce1e6" d="M 375.292969 283.914062 C 376.761719 289.234375 380.652344 304.90625 380.652344 317.964844 C 380.652344 317.964844 379.023438 320.578125 372.832031 320.917969 C 366.65625 320.578125 365.023438 317.964844 365.023438 317.964844 C 365.023438 304.90625 368.929688 289.234375 370.363281 283.914062 C 369.09375 283.105469 368.285156 281.6875 368.285156 280.089844 C 368.285156 277.949219 369.738281 276.183594 371.707031 275.679688 L 371.707031 267.003906 L 373.980469 268.355469 L 373.980469 275.679688 C 375.941406 276.183594 377.40625 277.949219 377.40625 280.089844 C 377.40625 281.6875 376.5625 283.105469 375.292969 283.914062 " fill-opacity="1" fill-rule="nonzero"/><g clip-path="url(#id2)"><path fill="#5ce1e6" d="M 527.625 252.453125 C 517.683594 258.164062 508.046875 263.746094 498.074219 269.539062 L 496.421875 270.492188 L 496.421875 270.085938 L 496.390625 269.945312 C 496.347656 269.273438 496.347656 268.617188 496.347656 267.949219 C 496.3125 265.328125 496.269531 262.34375 495.460938 259.273438 C 494.804688 256.773438 493.777344 254.152344 490.679688 252.125 L 489.839844 251.5625 C 488.253906 250.535156 486.601562 249.425781 484.722656 248.503906 C 479.832031 246.070312 474.496094 244.261719 468.492188 242.964844 C 459.699219 241.167969 450.511719 240.28125 440.386719 240.28125 C 437.957031 240.28125 435.53125 240.3125 433.101562 240.433594 C 427.328125 240.683594 422.613281 241.058594 418.273438 241.683594 C 408.125 243.195312 400.25 245.664062 393.21875 249.65625 C 390.351562 251.234375 386.746094 253.265625 385.464844 258.617188 C 384.621094 262.015625 384.175781 266.0625 383.957031 270.195312 L 381.453125 268.726562 L 376.191406 265.734375 L 375.601562 265.359375 L 373.390625 264.078125 L 372.800781 263.703125 L 365.964844 259.789062 C 361.875 257.398438 357.6875 254.996094 353.082031 252.34375 C 355.148438 251.046875 356.660156 250.0625 358.203125 249.171875 C 384.316406 234.414062 410.476562 219.695312 436.527344 204.824219 C 439.359375 203.234375 441.457031 203.234375 444.289062 204.859375 C 470.777344 219.992188 497.375 234.929688 523.90625 249.941406 C 525.042969 250.578125 526.113281 251.378906 527.625 252.453125 " fill-opacity="1" fill-rule="nonzero"/></g></svg>