<svg xmlns="http://www.w3.org/2000/svg" xmlns:xlink="http://www.w3.org/1999/xlink" width="370" zoomAndPan="magnify" viewBox="0 0 277.5 187.499995" height="250" preserveAspectRatio="xMidYMid meet" version="1.0"><defs><g/><clipPath id="id1"><path d="M 0.121094 0 L 276.882812 0 L 276.882812 187 L 0.121094 187 Z M 0.121094 0 " clip-rule="nonzero"/></clipPath><clipPath id="id2"><path d="M 111 95 L 118 95 L 118 114.539062 L 111 114.539062 Z M 111 95 " clip-rule="nonzero"/></clipPath><clipPath id="id3"><path d="M 107.558594 72.574219 L 169.753906 72.574219 L 169.753906 97 L 107.558594 97 Z M 107.558594 72.574219 " clip-rule="nonzero"/></clipPath></defs><g clip-path="url(#id1)"><path fill="#ffffff" d="M 0.121094 0 L 277.378906 0 L 277.378906 194.082031 L 0.121094 194.082031 Z M 0.121094 0 " fill-opacity="1" fill-rule="nonzero"/><path fill="#fffdf0" d="M 0.121094 0 L 277.378906 0 L 277.378906 187.339844 L 0.121094 187.339844 Z M 0.121094 0 " fill-opacity="1" fill-rule="nonzero"/><path fill="#ffffff" d="M 0.121094 0 L 277.378906 0 L 277.378906 187.339844 L 0.121094 187.339844 Z M 0.121094 0 " fill-opacity="1" fill-rule="nonzero"/><path fill="#fffdf0" d="M 0.121094 0 L 277.378906 0 L 277.378906 187.339844 L 0.121094 187.339844 Z M 0.121094 0 " fill-opacity="1" fill-rule="nonzero"/></g><g fill="#ff7d5a" fill-opacity="1"><g transform="translate(111.752728, 67.387128)"><g><path d="M 1.09375 0 L 1.09375 -10.140625 L 2.421875 -10.140625 L 2.421875 0 Z M 1.09375 0 "/></g></g></g><g fill="#ff7d5a" fill-opacity="1"><g transform="translate(115.279147, 67.387128)"><g><path d="M 11.4375 -10.140625 L 11.4375 0 L 10.09375 0 L 10.09375 -7.390625 L 6.703125 0 L 5.828125 0 L 2.421875 -7.390625 L 2.421875 0 L 1.09375 0 L 1.09375 -10.140625 L 2.453125 -10.140625 L 6.28125 -1.828125 L 10.078125 -10.140625 Z M 11.4375 -10.140625 "/></g></g></g><g fill="#ff7d5a" fill-opacity="1"><g transform="translate(127.819154, 67.387128)"><g><path d="M 4.390625 -10.140625 C 5.523438 -10.140625 6.390625 -9.859375 6.984375 -9.296875 C 7.585938 -8.742188 7.890625 -8.03125 7.890625 -7.15625 C 7.890625 -6.289062 7.597656 -5.578125 7.015625 -5.015625 C 6.441406 -4.460938 5.566406 -4.1875 4.390625 -4.1875 L 2.421875 -4.1875 L 2.421875 0 L 1.09375 0 L 1.09375 -10.140625 Z M 2.421875 -5.234375 L 4.390625 -5.234375 C 5.117188 -5.234375 5.660156 -5.398438 6.015625 -5.734375 C 6.367188 -6.078125 6.546875 -6.550781 6.546875 -7.15625 C 6.546875 -8.425781 5.828125 -9.0625 4.390625 -9.0625 L 2.421875 -9.0625 Z M 2.421875 -5.234375 "/></g></g></g><g fill="#ff7d5a" fill-opacity="1"><g transform="translate(136.276707, 67.387128)"><g><path d="M 8.09375 0 L 7.296875 -2.21875 L 2.796875 -2.21875 L 2 0 L 0.640625 0 L 4.328125 -10.140625 L 5.796875 -10.140625 L 9.46875 0 Z M 3.171875 -3.28125 L 6.921875 -3.28125 L 5.046875 -8.515625 Z M 3.171875 -3.28125 "/></g></g></g><g fill="#ff7d5a" fill-opacity="1"><g transform="translate(146.387729, 67.387128)"><g><path d="M 5.734375 0.09375 C 4.273438 0.09375 3.050781 -0.394531 2.0625 -1.375 C 1.070312 -2.351562 0.578125 -3.585938 0.578125 -5.078125 C 0.578125 -6.578125 1.070312 -7.8125 2.0625 -8.78125 C 3.050781 -9.75 4.273438 -10.234375 5.734375 -10.234375 C 6.785156 -10.234375 7.722656 -9.984375 8.546875 -9.484375 C 9.367188 -8.992188 9.976562 -8.28125 10.375 -7.34375 L 8.765625 -7.34375 C 8.160156 -8.476562 7.148438 -9.046875 5.734375 -9.046875 C 4.628906 -9.046875 3.71875 -8.679688 3 -7.953125 C 2.289062 -7.234375 1.9375 -6.273438 1.9375 -5.078125 C 1.9375 -3.878906 2.289062 -2.910156 3 -2.171875 C 3.71875 -1.441406 4.628906 -1.078125 5.734375 -1.078125 C 6.398438 -1.078125 7 -1.222656 7.53125 -1.515625 C 8.0625 -1.816406 8.472656 -2.25 8.765625 -2.8125 L 10.375 -2.8125 C 9.976562 -1.875 9.367188 -1.15625 8.546875 -0.65625 C 7.722656 -0.15625 6.785156 0.09375 5.734375 0.09375 Z M 5.734375 0.09375 "/></g></g></g><g fill="#ff7d5a" fill-opacity="1"><g transform="translate(157.75714, 67.387128)"><g><path d="M 0.640625 -9.0625 L 0.640625 -10.140625 L 7.328125 -10.140625 L 7.328125 -9.0625 L 4.65625 -9.0625 L 4.65625 0 L 3.3125 0 L 3.3125 -9.0625 Z M 0.640625 -9.0625 "/></g></g></g><g fill="#ff7d5a" fill-opacity="1"><g transform="translate(138.749985, 87.748452)"><g/></g></g><g fill="#ff7d5a" fill-opacity="1"><g transform="translate(138.749985, 108.109776)"><g/></g></g><g fill="#ff7d5a" fill-opacity="1"><g transform="translate(100.852289, 128.471101)"><g/></g></g><g fill="#ff7d5a" fill-opacity="1"><g transform="translate(105.240895, 128.471101)"><g><path d="M 0.640625 -9.0625 L 0.640625 -10.140625 L 7.328125 -10.140625 L 7.328125 -9.0625 L 4.65625 -9.0625 L 4.65625 0 L 3.3125 0 L 3.3125 -9.0625 Z M 0.640625 -9.0625 "/></g></g></g><g fill="#ff7d5a" fill-opacity="1"><g transform="translate(113.230211, 128.471101)"><g><path d="M 1.078125 -3.546875 L 1.078125 -10.140625 L 2.421875 -10.140625 L 2.421875 -3.546875 C 2.421875 -2.710938 2.644531 -2.085938 3.09375 -1.671875 C 3.539062 -1.253906 4.148438 -1.046875 4.921875 -1.046875 C 5.703125 -1.046875 6.316406 -1.253906 6.765625 -1.671875 C 7.210938 -2.085938 7.4375 -2.710938 7.4375 -3.546875 L 7.4375 -10.140625 L 8.78125 -10.140625 L 8.78125 -3.546875 C 8.78125 -2.359375 8.414062 -1.453125 7.6875 -0.828125 C 6.957031 -0.203125 6.035156 0.109375 4.921875 0.109375 C 3.804688 0.109375 2.882812 -0.203125 2.15625 -0.828125 C 1.4375 -1.453125 1.078125 -2.359375 1.078125 -3.546875 Z M 1.078125 -3.546875 "/></g></g></g><g fill="#ff7d5a" fill-opacity="1"><g transform="translate(123.077848, 128.471101)"><g><path d="M 0.640625 -9.0625 L 0.640625 -10.140625 L 7.328125 -10.140625 L 7.328125 -9.0625 L 4.65625 -9.0625 L 4.65625 0 L 3.3125 0 L 3.3125 -9.0625 Z M 0.640625 -9.0625 "/></g></g></g><g fill="#ff7d5a" fill-opacity="1"><g transform="translate(131.067164, 128.471101)"><g><path d="M 8.453125 -2.171875 C 9.160156 -2.910156 9.515625 -3.878906 9.515625 -5.078125 C 9.515625 -6.273438 9.160156 -7.234375 8.453125 -7.953125 C 7.742188 -8.679688 6.832031 -9.046875 5.71875 -9.046875 C 4.613281 -9.046875 3.703125 -8.679688 2.984375 -7.953125 C 2.273438 -7.234375 1.921875 -6.273438 1.921875 -5.078125 C 1.921875 -3.878906 2.28125 -2.910156 3 -2.171875 C 3.71875 -1.441406 4.628906 -1.078125 5.734375 -1.078125 C 6.835938 -1.078125 7.742188 -1.441406 8.453125 -2.171875 Z M 5.71875 0.109375 C 4.269531 0.109375 3.050781 -0.378906 2.0625 -1.359375 C 1.070312 -2.347656 0.578125 -3.585938 0.578125 -5.078125 C 0.578125 -6.578125 1.070312 -7.8125 2.0625 -8.78125 C 3.050781 -9.75 4.269531 -10.234375 5.71875 -10.234375 C 7.175781 -10.234375 8.398438 -9.75 9.390625 -8.78125 C 10.378906 -7.8125 10.875 -6.578125 10.875 -5.078125 C 10.875 -3.578125 10.378906 -2.335938 9.390625 -1.359375 C 8.398438 -0.378906 7.175781 0.109375 5.71875 0.109375 Z M 5.71875 0.109375 "/></g></g></g><g fill="#ff7d5a" fill-opacity="1"><g transform="translate(142.509738, 128.471101)"><g><path d="M 2.421875 -4.1875 L 2.421875 0 L 1.09375 0 L 1.09375 -10.140625 L 4.390625 -10.140625 C 5.523438 -10.140625 6.390625 -9.859375 6.984375 -9.296875 C 7.585938 -8.742188 7.890625 -8.066406 7.890625 -7.265625 C 7.890625 -6.460938 7.671875 -5.789062 7.234375 -5.25 C 6.796875 -4.71875 6.140625 -4.378906 5.265625 -4.234375 L 8.0625 0 L 6.390625 0 L 3.734375 -4.1875 Z M 2.421875 -9.0625 L 2.421875 -5.234375 L 4.390625 -5.234375 C 5.117188 -5.234375 5.660156 -5.398438 6.015625 -5.734375 C 6.367188 -6.078125 6.546875 -6.550781 6.546875 -7.15625 C 6.546875 -8.425781 5.828125 -9.0625 4.390625 -9.0625 Z M 2.421875 -9.0625 "/></g></g></g><g fill="#ff7d5a" fill-opacity="1"><g transform="translate(151.537959, 128.471101)"><g><path d="M 1.09375 0 L 1.09375 -10.140625 L 2.421875 -10.140625 L 2.421875 0 Z M 1.09375 0 "/></g></g></g><g fill="#ff7d5a" fill-opacity="1"><g transform="translate(155.064378, 128.471101)"><g><path d="M 7.78125 -10.140625 L 9.109375 -10.140625 L 9.109375 0 L 7.78125 0 L 2.421875 -8.046875 L 2.421875 0 L 1.09375 0 L 1.09375 -10.140625 L 2.421875 -10.140625 L 7.78125 -2.09375 Z M 7.78125 -10.140625 "/></g></g></g><g fill="#ff7d5a" fill-opacity="1"><g transform="translate(165.277823, 128.471101)"><g><path d="M 5.640625 0.09375 C 4.242188 0.09375 3.050781 -0.394531 2.0625 -1.375 C 1.070312 -2.351562 0.578125 -3.585938 0.578125 -5.078125 C 0.578125 -6.578125 1.070312 -7.8125 2.0625 -8.78125 C 3.050781 -9.75 4.273438 -10.234375 5.734375 -10.234375 C 6.785156 -10.234375 7.722656 -9.984375 8.546875 -9.484375 C 9.367188 -8.992188 9.976562 -8.28125 10.375 -7.34375 L 8.765625 -7.34375 C 8.160156 -8.476562 7.148438 -9.046875 5.734375 -9.046875 C 4.628906 -9.046875 3.71875 -8.679688 3 -7.953125 C 2.289062 -7.234375 1.9375 -6.273438 1.9375 -5.078125 C 1.9375 -3.878906 2.289062 -2.910156 3 -2.171875 C 3.71875 -1.441406 4.609375 -1.078125 5.671875 -1.078125 C 6.742188 -1.078125 7.601562 -1.378906 8.25 -1.984375 C 8.90625 -2.585938 9.285156 -3.410156 9.390625 -4.453125 L 5.203125 -4.453125 L 5.203125 -5.5 L 10.796875 -5.5 L 10.796875 -4.453125 C 10.660156 -3.140625 10.117188 -2.050781 9.171875 -1.1875 C 8.222656 -0.332031 7.046875 0.09375 5.640625 0.09375 Z M 5.640625 0.09375 "/></g></g></g><path fill="#5ce1e6" d="M 114.632812 87.371094 L 114.414062 87.253906 L 114.414062 87.246094 Z M 114.632812 87.371094 " fill-opacity="1" fill-rule="nonzero"/><path fill="#5ce1e6" d="M 154.257812 102.820312 C 153.605469 103.109375 152.929688 103.390625 152.238281 103.519531 C 150.996094 103.757812 149.734375 103.96875 148.476562 104.058594 C 146.074219 104.21875 143.664062 104.347656 141.261719 104.464844 C 140.359375 104.515625 139.46875 104.535156 138.582031 104.527344 C 137.148438 104.527344 135.738281 104.464844 134.300781 104.398438 C 132.503906 104.308594 130.726562 104.210938 128.945312 104.058594 C 127.085938 103.886719 125.195312 103.726562 123.421875 103.03125 C 123.359375 103.011719 123.289062 103 123.242188 102.96875 C 122.753906 102.75 122.101562 102.28125 122.722656 101.820312 C 123.128906 101.519531 123.699219 101.433594 124.183594 101.304688 C 125.042969 101.054688 125.933594 100.84375 126.824219 100.703125 C 130.054688 100.195312 133.308594 100.054688 136.578125 100.074219 C 139.617188 100.097656 142.664062 100.035156 145.707031 100.195312 C 147.933594 100.316406 150.15625 100.714844 152.367188 101.042969 C 152.929688 101.125 153.507812 101.214844 154.019531 101.453125 C 154.570312 101.710938 155.089844 102.453125 154.257812 102.820312 Z M 156.738281 96.699219 C 156.738281 96.679688 156.730469 96.660156 156.730469 96.648438 C 156.667969 95.433594 156.769531 94.234375 156.449219 93.035156 C 156.289062 92.417969 156.117188 92 155.582031 91.648438 C 154.949219 91.242188 154.328125 90.808594 153.648438 90.484375 C 151.964844 89.640625 150.207031 89.074219 148.347656 88.683594 C 144.320312 87.855469 140.269531 87.65625 136.199219 87.816406 C 134.5 87.886719 132.796875 88.007812 131.117188 88.246094 C 128.261719 88.664062 125.480469 89.363281 122.945312 90.789062 C 121.992188 91.320312 121.308594 91.667969 121.039062 92.765625 C 120.410156 95.363281 120.453125 99.429688 120.371094 102.070312 C 120.359375 102.570312 120.550781 102.929688 120.929688 103.179688 C 121.300781 103.429688 121.691406 103.65625 122.113281 103.828125 C 124.59375 104.828125 127.246094 105.117188 129.867188 105.492188 C 131.214844 105.695312 132.597656 105.753906 133.957031 105.792969 C 140.019531 105.972656 146.085938 105.964844 152.054688 104.707031 C 153.449219 104.417969 154.777344 103.808594 156.109375 103.289062 C 156.558594 103.109375 156.859375 102.6875 156.847656 102.152344 C 156.820312 100.863281 156.808594 97.988281 156.738281 96.699219 " fill-opacity="1" fill-rule="nonzero"/><g clip-path="url(#id2)"><path fill="#5ce1e6" d="M 115.507812 101.285156 C 116.027344 103.171875 117.417969 108.730469 117.417969 113.363281 C 117.417969 113.363281 116.835938 114.292969 114.628906 114.410156 C 112.425781 114.292969 111.84375 113.363281 111.84375 113.363281 C 111.84375 108.730469 113.238281 103.171875 113.746094 101.285156 C 113.296875 100.996094 113.007812 100.496094 113.007812 99.925781 C 113.007812 99.167969 113.527344 98.539062 114.226562 98.363281 L 114.226562 95.285156 L 115.039062 95.761719 L 115.039062 98.363281 C 115.738281 98.539062 116.257812 99.167969 116.257812 99.925781 C 116.257812 100.496094 115.960938 100.996094 115.507812 101.285156 " fill-opacity="1" fill-rule="nonzero"/></g><g clip-path="url(#id3)"><path fill="#5ce1e6" d="M 169.828125 90.121094 C 166.28125 92.148438 162.84375 94.128906 159.289062 96.183594 L 158.699219 96.523438 L 158.699219 96.378906 L 158.6875 96.328125 C 158.671875 96.089844 158.671875 95.855469 158.671875 95.617188 C 158.660156 94.6875 158.644531 93.628906 158.355469 92.542969 C 158.125 91.652344 157.757812 90.722656 156.652344 90.003906 L 156.351562 89.804688 C 155.789062 89.441406 155.199219 89.046875 154.527344 88.71875 C 152.785156 87.855469 150.882812 87.214844 148.742188 86.753906 C 145.605469 86.117188 142.328125 85.800781 138.71875 85.800781 C 137.851562 85.800781 136.988281 85.8125 136.121094 85.855469 C 134.0625 85.945312 132.378906 86.078125 130.832031 86.300781 C 127.214844 86.835938 124.40625 87.710938 121.898438 89.128906 C 120.875 89.6875 119.589844 90.410156 119.132812 92.308594 C 118.832031 93.515625 118.671875 94.949219 118.59375 96.417969 L 117.703125 95.894531 L 115.828125 94.832031 L 115.617188 94.699219 L 114.828125 94.246094 L 114.617188 94.113281 L 112.179688 92.722656 C 110.722656 91.875 109.226562 91.023438 107.585938 90.082031 C 108.324219 89.625 108.863281 89.273438 109.410156 88.957031 C 118.722656 83.71875 128.050781 78.5 137.339844 73.222656 C 138.351562 72.660156 139.101562 72.660156 140.109375 73.234375 C 149.554688 78.605469 159.039062 83.902344 168.5 89.230469 C 168.90625 89.457031 169.289062 89.738281 169.828125 90.121094 " fill-opacity="1" fill-rule="nonzero"/></g></svg>