<?xml version="1.0" encoding="UTF-8"?>
<svg xmlns="http://www.w3.org/2000/svg" xmlns:xlink="http://www.w3.org/1999/xlink" width="307.94pt" height="113.71pt" viewBox="0 0 307.94 113.71" version="1.1">
<g id="surface1">
<path style=" stroke:none;fill-rule:nonzero;fill:rgb(47.058105%,67.451477%,20.783997%);fill-opacity:1;" d="M 0.21875 90.449219 L 307.9375 90.449219 L 307.9375 89.449219 L 0.21875 89.449219 Z M 0.21875 90.449219 "/>
<path style=" stroke:none;fill-rule:nonzero;fill:rgb(16.862488%,16.862488%,16.862488%);fill-opacity:1;" d="M 206.292969 32.800781 L 206.292969 22.929688 L 202.035156 29.386719 L 201.949219 29.386719 L 197.734375 22.992188 L 197.734375 32.800781 L 194.472656 32.800781 L 194.472656 17.675781 L 198.0625 17.675781 L 202.035156 24.074219 L 206.011719 17.675781 L 209.597656 17.675781 L 209.597656 32.800781 L 206.292969 32.800781 "/>
<path style=" stroke:none;fill-rule:nonzero;fill:rgb(16.862488%,16.862488%,16.862488%);fill-opacity:1;" d="M 214.121094 32.800781 L 217.449219 32.800781 L 217.449219 17.675781 L 214.121094 17.675781 Z M 214.121094 32.800781 "/>
<path style=" stroke:none;fill-rule:nonzero;fill:rgb(16.862488%,16.862488%,16.862488%);fill-opacity:1;" d="M 228.246094 33.0625 C 223.796875 33.0625 220.488281 29.625 220.488281 25.28125 L 220.488281 25.238281 C 220.488281 20.941406 223.730469 17.417969 228.375 17.417969 C 231.226562 17.417969 232.933594 18.367188 234.339844 19.75 L 232.222656 22.195312 C 231.054688 21.132812 229.867188 20.488281 228.351562 20.488281 C 225.804688 20.488281 223.96875 22.605469 223.96875 25.195312 L 223.96875 25.238281 C 223.96875 27.832031 225.761719 29.992188 228.351562 29.992188 C 230.082031 29.992188 231.140625 29.300781 232.328125 28.222656 L 234.445312 30.359375 C 232.890625 32.023438 231.160156 33.0625 228.246094 33.0625 "/>
<path style=" stroke:none;fill-rule:nonzero;fill:rgb(16.862488%,16.862488%,16.862488%);fill-opacity:1;" d="M 246.992188 32.800781 L 246.992188 26.730469 L 240.859375 26.730469 L 240.859375 32.800781 L 237.53125 32.800781 L 237.53125 17.675781 L 240.859375 17.675781 L 240.859375 23.664062 L 246.992188 23.664062 L 246.992188 17.675781 L 250.320312 17.675781 L 250.320312 32.800781 L 246.992188 32.800781 "/>
<path style=" stroke:none;fill-rule:nonzero;fill:rgb(16.862488%,16.862488%,16.862488%);fill-opacity:1;" d="M 261.054688 21.566406 L 259.046875 26.472656 L 263.0625 26.472656 Z M 265.636719 32.800781 L 264.253906 29.410156 L 257.855469 29.410156 L 256.476562 32.800781 L 253.082031 32.800781 L 259.5625 17.570312 L 262.632812 17.570312 L 269.113281 32.800781 L 265.636719 32.800781 "/>
<path style=" stroke:none;fill-rule:nonzero;fill:rgb(16.862488%,16.862488%,16.862488%);fill-opacity:1;" d="M 271.875 32.800781 L 271.875 17.675781 L 283.28125 17.675781 L 283.28125 20.636719 L 275.179688 20.636719 L 275.179688 23.707031 L 282.308594 23.707031 L 282.308594 26.664062 L 275.179688 26.664062 L 275.179688 29.84375 L 283.390625 29.84375 L 283.390625 32.800781 L 271.875 32.800781 "/>
<path style=" stroke:none;fill-rule:nonzero;fill:rgb(16.862488%,16.862488%,16.862488%);fill-opacity:1;" d="M 286.777344 32.800781 L 286.777344 17.675781 L 290.105469 17.675781 L 290.105469 29.777344 L 297.644531 29.777344 L 297.644531 32.800781 L 286.777344 32.800781 "/>
<path style=" stroke:none;fill-rule:nonzero;fill:rgb(16.862488%,16.862488%,16.862488%);fill-opacity:1;" d="M 201.757812 55.375 C 197.046875 55.375 193.804688 52.070312 193.804688 47.597656 L 193.804688 47.554688 C 193.804688 43.253906 197.152344 39.734375 201.734375 39.734375 C 204.457031 39.734375 206.097656 40.46875 207.675781 41.808594 L 205.578125 44.335938 C 204.414062 43.363281 203.375 42.800781 201.625 42.800781 C 199.207031 42.800781 197.28125 44.941406 197.28125 47.511719 L 197.28125 47.554688 C 197.28125 50.320312 199.183594 52.351562 201.863281 52.351562 C 203.074219 52.351562 204.152344 52.050781 204.996094 51.445312 L 204.996094 49.285156 L 201.648438 49.285156 L 201.648438 46.410156 L 208.214844 46.410156 L 208.214844 52.980469 C 206.660156 54.296875 204.519531 55.375 201.757812 55.375 "/>
<path style=" stroke:none;fill-rule:nonzero;fill:rgb(16.862488%,16.862488%,16.862488%);fill-opacity:1;" d="M 218.515625 43.882812 L 216.507812 48.785156 L 220.527344 48.785156 Z M 223.097656 55.117188 L 221.714844 51.726562 L 215.320312 51.726562 L 213.9375 55.117188 L 210.542969 55.117188 L 217.027344 39.886719 L 220.09375 39.886719 L 226.574219 55.117188 L 223.097656 55.117188 "/>
<path style=" stroke:none;fill-rule:nonzero;fill:rgb(16.862488%,16.862488%,16.862488%);fill-opacity:1;" d="M 238.585938 45.15625 C 238.585938 43.730469 237.589844 42.996094 235.96875 42.996094 L 232.664062 42.996094 L 232.664062 47.339844 L 236.035156 47.339844 C 237.65625 47.339844 238.585938 46.476562 238.585938 45.199219 Z M 238.519531 55.117188 L 235.277344 50.277344 L 232.664062 50.277344 L 232.664062 55.117188 L 229.335938 55.117188 L 229.335938 39.992188 L 236.25 39.992188 C 239.816406 39.992188 241.953125 41.871094 241.953125 44.984375 L 241.953125 45.027344 C 241.953125 47.46875 240.636719 49.003906 238.714844 49.714844 L 242.40625 55.117188 L 238.519531 55.117188 "/>
<path style=" stroke:none;fill-rule:nonzero;fill:rgb(16.862488%,16.862488%,16.862488%);fill-opacity:1;" d="M 254.632812 45.15625 C 254.632812 43.730469 253.636719 42.996094 252.019531 42.996094 L 248.710938 42.996094 L 248.710938 47.339844 L 252.082031 47.339844 C 253.703125 47.339844 254.632812 46.476562 254.632812 45.199219 Z M 254.566406 55.117188 L 251.324219 50.277344 L 248.710938 50.277344 L 248.710938 55.117188 L 245.382812 55.117188 L 245.382812 39.992188 L 252.296875 39.992188 C 255.863281 39.992188 258.003906 41.871094 258.003906 44.984375 L 258.003906 45.027344 C 258.003906 47.46875 256.683594 49.003906 254.761719 49.714844 L 258.457031 55.117188 L 254.566406 55.117188 "/>
<path style=" stroke:none;fill-rule:nonzero;fill:rgb(16.862488%,16.862488%,16.862488%);fill-opacity:1;" d="M 273.359375 47.554688 C 273.359375 44.960938 271.457031 42.800781 268.777344 42.800781 C 266.097656 42.800781 264.242188 44.917969 264.242188 47.511719 L 264.242188 47.554688 C 264.242188 50.148438 266.144531 52.308594 268.820312 52.308594 C 271.5 52.308594 273.359375 50.191406 273.359375 47.597656 Z M 268.777344 55.375 C 264.109375 55.375 260.761719 51.898438 260.761719 47.597656 L 260.761719 47.554688 C 260.761719 43.253906 264.152344 39.734375 268.820312 39.734375 C 273.488281 39.734375 276.839844 43.210938 276.839844 47.511719 L 276.839844 47.554688 C 276.839844 51.855469 273.445312 55.375 268.777344 55.375 "/>
<path style=" stroke:none;fill-rule:nonzero;fill:rgb(16.862488%,16.862488%,16.862488%);fill-opacity:1;" d="M 290.667969 55.117188 L 283.34375 45.503906 L 283.34375 55.117188 L 280.058594 55.117188 L 280.058594 39.992188 L 283.128906 39.992188 L 290.214844 49.304688 L 290.214844 39.992188 L 293.496094 39.992188 L 293.496094 55.117188 L 290.667969 55.117188 "/>
<path style=" stroke:none;fill-rule:nonzero;fill:rgb(16.862488%,16.862488%,16.862488%);fill-opacity:1;" d="M 203.9375 77.433594 L 203.9375 71.363281 L 197.800781 71.363281 L 197.800781 77.433594 L 194.472656 77.433594 L 194.472656 62.308594 L 197.800781 62.308594 L 197.800781 68.292969 L 203.9375 68.292969 L 203.9375 62.308594 L 207.265625 62.308594 L 207.265625 77.433594 L 203.9375 77.433594 "/>
<path style=" stroke:none;fill-rule:nonzero;fill:rgb(16.862488%,16.862488%,16.862488%);fill-opacity:1;" d="M 222.8125 69.871094 C 222.8125 67.277344 220.910156 65.117188 218.230469 65.117188 C 215.554688 65.117188 213.695312 67.234375 213.695312 69.828125 L 213.695312 69.871094 C 213.695312 72.464844 215.597656 74.625 218.273438 74.625 C 220.953125 74.625 222.8125 72.507812 222.8125 69.914062 Z M 218.230469 77.691406 C 213.566406 77.691406 210.214844 74.214844 210.214844 69.914062 L 210.214844 69.871094 C 210.214844 65.570312 213.609375 62.050781 218.273438 62.050781 C 222.941406 62.050781 226.289062 65.527344 226.289062 69.828125 L 226.289062 69.871094 C 226.289062 74.171875 222.898438 77.691406 218.230469 77.691406 "/>
<path style=" stroke:none;fill-rule:nonzero;fill:rgb(16.862488%,16.862488%,16.862488%);fill-opacity:1;" d="M 235.058594 77.648438 C 232.765625 77.648438 230.453125 76.851562 228.640625 75.230469 L 230.605469 72.875 C 231.96875 73.996094 233.394531 74.710938 235.121094 74.710938 C 236.484375 74.710938 237.304688 74.171875 237.304688 73.285156 L 237.304688 73.242188 C 237.304688 72.398438 236.785156 71.964844 234.257812 71.320312 C 231.210938 70.539062 229.246094 69.699219 229.246094 66.695312 L 229.246094 66.652344 C 229.246094 63.90625 231.449219 62.09375 234.539062 62.09375 C 236.742188 62.09375 238.621094 62.785156 240.15625 64.015625 L 238.429688 66.523438 C 237.089844 65.59375 235.769531 65.03125 234.496094 65.03125 C 233.222656 65.03125 232.550781 65.613281 232.550781 66.347656 L 232.550781 66.390625 C 232.550781 67.386719 233.199219 67.710938 235.8125 68.378906 C 238.882812 69.179688 240.609375 70.28125 240.609375 72.917969 L 240.609375 72.960938 C 240.609375 75.964844 238.320312 77.648438 235.058594 77.648438 "/>
<path style=" stroke:none;fill-rule:nonzero;fill:rgb(16.862488%,16.862488%,16.862488%);fill-opacity:1;" d="M 252.53125 67.601562 C 252.53125 66.109375 251.496094 65.3125 249.832031 65.3125 L 247.261719 65.3125 L 247.261719 69.9375 L 249.898438 69.9375 C 251.5625 69.9375 252.53125 68.941406 252.53125 67.644531 Z M 249.789062 72.894531 L 247.261719 72.894531 L 247.261719 77.433594 L 243.933594 77.433594 L 243.933594 62.308594 L 250.113281 62.308594 C 253.722656 62.308594 255.902344 64.449219 255.902344 67.539062 L 255.902344 67.582031 C 255.902344 71.082031 253.179688 72.894531 249.789062 72.894531 "/>
<path style=" stroke:none;fill-rule:nonzero;fill:rgb(16.862488%,16.862488%,16.862488%);fill-opacity:1;" d="M 258.945312 77.433594 L 262.273438 77.433594 L 262.273438 62.308594 L 258.945312 62.308594 Z M 258.945312 77.433594 "/>
<path style=" stroke:none;fill-rule:nonzero;fill:rgb(16.862488%,16.862488%,16.862488%);fill-opacity:1;" d="M 273.332031 65.375 L 273.332031 77.433594 L 270.007812 77.433594 L 270.007812 65.375 L 265.402344 65.375 L 265.402344 62.308594 L 277.9375 62.308594 L 277.9375 65.375 L 273.332031 65.375 "/>
<path style=" stroke:none;fill-rule:nonzero;fill:rgb(16.862488%,16.862488%,16.862488%);fill-opacity:1;" d="M 286.1875 66.199219 L 284.179688 71.101562 L 288.199219 71.101562 Z M 290.769531 77.433594 L 289.386719 74.039062 L 282.992188 74.039062 L 281.609375 77.433594 L 278.214844 77.433594 L 284.699219 62.199219 L 287.765625 62.199219 L 294.246094 77.433594 L 290.769531 77.433594 "/>
<path style=" stroke:none;fill-rule:nonzero;fill:rgb(16.862488%,16.862488%,16.862488%);fill-opacity:1;" d="M 297.007812 77.433594 L 297.007812 62.308594 L 300.335938 62.308594 L 300.335938 74.40625 L 307.875 74.40625 L 307.875 77.433594 L 297.007812 77.433594 "/>
<path style=" stroke:none;fill-rule:nonzero;fill:rgb(47.058105%,67.451477%,20.783997%);fill-opacity:1;" d="M 155.035156 77.433594 L 160.136719 77.433594 L 160.136719 71.308594 L 155.035156 71.308594 Z M 155.035156 77.433594 "/>
<path style=" stroke:none;fill-rule:nonzero;fill:rgb(47.058105%,67.451477%,20.783997%);fill-opacity:1;" d="M 144.023438 0.00390625 L 144.023438 77.433594 L 149.15625 77.433594 L 149.160156 62.210938 L 156.785156 54.1875 L 171.953125 62.632812 L 171.953125 77.433594 L 177.058594 77.433594 L 177.058594 18.398438 L 144.023438 0.00390625 "/>
<path style=" stroke:none;fill-rule:nonzero;fill:rgb(69.804382%,83.529663%,21.176147%);fill-opacity:1;" d="M 78.234375 77.441406 L 83.335938 77.441406 L 83.335938 71.3125 L 78.234375 71.3125 Z M 78.234375 77.441406 "/>
<path style=" stroke:none;fill-rule:nonzero;fill:rgb(69.804382%,83.529663%,21.176147%);fill-opacity:1;" d="M 44.617188 77.441406 L 49.71875 77.441406 L 49.71875 71.3125 L 44.617188 71.3125 Z M 44.617188 77.441406 "/>
<path style=" stroke:none;fill-rule:nonzero;fill:rgb(69.804382%,83.529663%,21.176147%);fill-opacity:1;" d="M 16.921875 77.441406 L 22.023438 77.441406 L 22.023438 71.3125 L 16.921875 71.3125 Z M 16.921875 77.441406 "/>
<path style=" stroke:none;fill-rule:nonzero;fill:rgb(69.804382%,83.529663%,21.176147%);fill-opacity:1;" d="M 126.496094 18.914062 L 130.921875 18.070312 L 130.921875 21.820312 L 134.371094 21.242188 L 134.371094 10.058594 L 130.921875 10.632812 L 130.933594 14.78125 L 126.53125 15.589844 L 126.5 11.441406 L 123.050781 12.023438 L 123.050781 23.171875 L 126.496094 22.59375 L 126.496094 18.914062 "/>
<path style=" stroke:none;fill-rule:nonzero;fill:rgb(69.804382%,83.529663%,21.176147%);fill-opacity:1;" d="M 136.554688 23.054688 L 120.953125 25.777344 L 120.953125 10.152344 L 136.554688 7.449219 Z M 0.21875 24.222656 L 0.21875 77.441406 L 5.320312 77.441406 L 5.320312 59.375 L 20.355469 56.804688 L 27.75 59.375 L 27.75 77.441406 L 32.871094 77.441406 L 32.816406 60.058594 L 29.753906 60.082031 L 47.21875 51.746094 L 64.191406 60.039062 L 61.019531 60.054688 L 61.070312 77.441406 L 66.191406 77.441406 L 66.191406 49.957031 L 89.003906 46.535156 L 89.003906 77.441406 L 96.980469 77.441406 L 96.980469 74.113281 C 93.945312 73.777344 91.585938 71.332031 91.585938 68.359375 C 91.585938 66.964844 92.105469 65.683594 92.976562 64.683594 C 92.789062 64.1875 92.691406 63.65625 92.691406 63.105469 C 92.691406 60.484375 94.929688 58.359375 97.691406 58.359375 C 100.453125 58.359375 102.691406 60.484375 102.691406 63.105469 C 102.691406 63.65625 102.589844 64.1875 102.40625 64.683594 C 103.277344 65.683594 103.796875 66.964844 103.796875 68.359375 C 103.796875 71.164062 101.703125 73.5 98.917969 74.039062 L 98.917969 77.441406 L 106.445312 77.441406 L 106.445312 59.042969 L 124.515625 56.53125 L 124.515625 77.441406 L 125.953125 77.441406 L 125.953125 56.53125 L 144.023438 59.042969 L 144.023438 0.00390625 L 0.21875 24.222656 "/>
<path style=" stroke:none;fill-rule:nonzero;fill:rgb(69.804382%,83.529663%,21.176147%);fill-opacity:1;" d="M 112.261719 77.441406 L 117.363281 77.441406 L 117.363281 71.296875 L 112.261719 71.296875 Z M 112.261719 77.441406 "/>
<path style=" stroke:none;fill-rule:nonzero;fill:rgb(69.804382%,83.529663%,21.176147%);fill-opacity:1;" d="M 133.269531 77.441406 L 138.371094 77.441406 L 138.371094 71.3125 L 133.269531 71.3125 Z M 133.269531 77.441406 "/>
<path style=" stroke:none;fill-rule:nonzero;fill:rgb(47.058105%,67.451477%,20.783997%);fill-opacity:1;" d="M 116.867188 10.941406 L 116.867188 14.359375 L 5.351562 33.578125 L 5.351562 30.082031 L 116.867188 10.941406 "/>
<path style=" stroke:none;fill-rule:nonzero;fill:rgb(47.058105%,67.451477%,20.783997%);fill-opacity:1;" d="M 116.867188 16.925781 L 116.867188 20.386719 L 5.351562 39.609375 L 5.351562 36.070312 L 116.867188 16.925781 "/>
<path style=" stroke:none;fill-rule:nonzero;fill:rgb(47.058105%,67.451477%,20.783997%);fill-opacity:1;" d="M 116.867188 22.84375 L 116.867188 26.480469 L 5.351562 45.703125 L 5.351562 41.988281 L 116.867188 22.84375 "/>
<path style=" stroke:none;fill-rule:nonzero;fill:rgb(47.058105%,67.451477%,20.783997%);fill-opacity:1;" d="M 136.5625 26.132812 L 136.5625 29.828125 L 5.351562 51.949219 L 5.351562 48.175781 L 136.5625 26.132812 "/>
<path style=" stroke:none;fill-rule:nonzero;fill:rgb(47.058105%,67.451477%,20.783997%);fill-opacity:1;" d="M 136.597656 32.648438 L 136.597656 36.4375 L 94.789062 43.515625 L 94.789062 39.648438 L 136.597656 32.648438 "/>
<path style=" stroke:none;fill-rule:nonzero;fill:rgb(47.058105%,67.451477%,20.783997%);fill-opacity:1;" d="M 5.832031 104.65625 L 5.832031 113.519531 L 3.382812 113.519531 L 3.382812 104.65625 L 0 104.65625 L 0 102.402344 L 9.210938 102.402344 L 9.210938 104.65625 L 5.832031 104.65625 "/>
<path style=" stroke:none;fill-rule:nonzero;fill:rgb(47.058105%,67.451477%,20.783997%);fill-opacity:1;" d="M 20.25 107.957031 C 20.25 106.054688 18.851562 104.464844 16.882812 104.464844 C 14.910156 104.464844 13.546875 106.023438 13.546875 107.925781 L 13.546875 107.957031 C 13.546875 109.867188 14.945312 111.453125 16.914062 111.453125 C 18.882812 111.453125 20.25 109.898438 20.25 107.992188 Z M 16.882812 113.710938 C 13.449219 113.710938 10.988281 111.152344 10.988281 107.992188 L 10.988281 107.957031 C 10.988281 104.800781 13.480469 102.210938 16.914062 102.210938 C 20.34375 102.210938 22.804688 104.765625 22.804688 107.925781 L 22.804688 107.957031 C 22.804688 111.121094 20.3125 113.710938 16.882812 113.710938 "/>
<path style=" stroke:none;fill-rule:nonzero;fill:rgb(47.058105%,67.451477%,20.783997%);fill-opacity:1;" d="M 32.171875 106.195312 C 32.171875 105.148438 31.441406 104.609375 30.25 104.609375 L 27.820312 104.609375 L 27.820312 107.800781 L 30.296875 107.800781 C 31.488281 107.800781 32.171875 107.164062 32.171875 106.230469 Z M 32.125 113.519531 L 29.738281 109.960938 L 27.820312 109.960938 L 27.820312 113.519531 L 25.375 113.519531 L 25.375 102.402344 L 30.457031 102.402344 C 33.074219 102.402344 34.648438 103.78125 34.648438 106.070312 L 34.648438 106.101562 C 34.648438 107.894531 33.679688 109.023438 32.265625 109.546875 L 34.984375 113.519531 L 32.125 113.519531 "/>
<path style=" stroke:none;fill-rule:nonzero;fill:rgb(47.058105%,67.451477%,20.783997%);fill-opacity:1;" d="M 46.015625 107.957031 C 46.015625 106.054688 44.621094 104.464844 42.652344 104.464844 C 40.679688 104.464844 39.316406 106.023438 39.316406 107.925781 L 39.316406 107.957031 C 39.316406 109.867188 40.710938 111.453125 42.679688 111.453125 C 44.652344 111.453125 46.015625 109.898438 46.015625 107.992188 Z M 42.652344 113.710938 C 39.21875 113.710938 36.757812 111.152344 36.757812 107.992188 L 36.757812 107.957031 C 36.757812 104.800781 39.25 102.210938 42.679688 102.210938 C 46.113281 102.210938 48.574219 104.765625 48.574219 107.925781 L 48.574219 107.957031 C 48.574219 111.121094 46.082031 113.710938 42.652344 113.710938 "/>
<path style=" stroke:none;fill-rule:nonzero;fill:rgb(47.058105%,67.451477%,20.783997%);fill-opacity:1;" d="M 58.941406 113.519531 L 53.554688 106.449219 L 53.554688 113.519531 L 51.140625 113.519531 L 51.140625 102.402344 L 53.394531 102.402344 L 58.605469 109.246094 L 58.605469 102.402344 L 61.019531 102.402344 L 61.019531 113.519531 L 58.941406 113.519531 "/>
<path style=" stroke:none;fill-rule:nonzero;fill:rgb(47.058105%,67.451477%,20.783997%);fill-opacity:1;" d="M 69.117188 104.65625 L 69.117188 113.519531 L 66.671875 113.519531 L 66.671875 104.65625 L 63.285156 104.65625 L 63.285156 102.402344 L 72.5 102.402344 L 72.5 104.65625 L 69.117188 104.65625 "/>
<path style=" stroke:none;fill-rule:nonzero;fill:rgb(47.058105%,67.451477%,20.783997%);fill-opacity:1;" d="M 83.535156 107.957031 C 83.535156 106.054688 82.136719 104.464844 80.167969 104.464844 C 78.199219 104.464844 76.832031 106.023438 76.832031 107.925781 L 76.832031 107.957031 C 76.832031 109.867188 78.230469 111.453125 80.199219 111.453125 C 82.171875 111.453125 83.535156 109.898438 83.535156 107.992188 Z M 80.167969 113.710938 C 76.738281 113.710938 74.277344 111.152344 74.277344 107.992188 L 74.277344 107.957031 C 74.277344 104.800781 76.769531 102.210938 80.199219 102.210938 C 83.632812 102.210938 86.09375 104.765625 86.09375 107.925781 L 86.09375 107.957031 C 86.09375 111.121094 83.597656 113.710938 80.167969 113.710938 "/>
<path style=" stroke:none;fill-rule:nonzero;fill:rgb(47.058105%,67.451477%,20.783997%);fill-opacity:1;" d="M 93.820312 113.519531 L 93.820312 102.402344 L 102.207031 102.402344 L 102.207031 104.574219 L 96.253906 104.574219 L 96.253906 106.832031 L 101.492188 106.832031 L 101.492188 109.007812 L 96.253906 109.007812 L 96.253906 111.34375 L 102.289062 111.34375 L 102.289062 113.519531 L 93.820312 113.519531 "/>
<path style=" stroke:none;fill-rule:nonzero;fill:rgb(47.058105%,67.451477%,20.783997%);fill-opacity:1;" d="M 109.765625 105.261719 L 108.285156 108.867188 L 111.242188 108.867188 Z M 113.128906 113.519531 L 112.113281 111.027344 L 107.414062 111.027344 L 106.398438 113.519531 L 103.902344 113.519531 L 108.667969 102.320312 L 110.921875 102.320312 L 115.6875 113.519531 L 113.128906 113.519531 "/>
<path style=" stroke:none;fill-rule:nonzero;fill:rgb(47.058105%,67.451477%,20.783997%);fill-opacity:1;" d="M 121.753906 113.679688 C 120.066406 113.679688 118.367188 113.089844 117.035156 111.898438 L 118.480469 110.167969 C 119.480469 110.992188 120.527344 111.519531 121.796875 111.519531 C 122.800781 111.519531 123.402344 111.121094 123.402344 110.46875 L 123.402344 110.4375 C 123.402344 109.816406 123.019531 109.5 121.164062 109.023438 C 118.925781 108.453125 117.476562 107.832031 117.476562 105.625 L 117.476562 105.59375 C 117.476562 103.574219 119.097656 102.242188 121.371094 102.242188 C 122.988281 102.242188 124.371094 102.75 125.5 103.65625 L 124.230469 105.496094 C 123.242188 104.816406 122.273438 104.402344 121.339844 104.402344 C 120.402344 104.402344 119.90625 104.828125 119.90625 105.371094 L 119.90625 105.402344 C 119.90625 106.132812 120.386719 106.371094 122.308594 106.863281 C 124.5625 107.453125 125.832031 108.261719 125.832031 110.199219 L 125.832031 110.230469 C 125.832031 112.4375 124.148438 113.679688 121.753906 113.679688 "/>
<path style=" stroke:none;fill-rule:nonzero;fill:rgb(47.058105%,67.451477%,20.783997%);fill-opacity:1;" d="M 133.390625 104.65625 L 133.390625 113.519531 L 130.945312 113.519531 L 130.945312 104.65625 L 127.558594 104.65625 L 127.558594 102.402344 L 136.773438 102.402344 L 136.773438 104.65625 L 133.390625 104.65625 "/>
<path style=" stroke:none;fill-rule:nonzero;fill:rgb(47.058105%,67.451477%,20.783997%);fill-opacity:1;" d="M 151.15625 113.519531 L 151.15625 109.054688 L 146.648438 109.054688 L 146.648438 113.519531 L 144.203125 113.519531 L 144.203125 102.402344 L 146.648438 102.402344 L 146.648438 106.800781 L 151.15625 106.800781 L 151.15625 102.402344 L 153.605469 102.402344 L 153.605469 113.519531 L 151.15625 113.519531 "/>
<path style=" stroke:none;fill-rule:nonzero;fill:rgb(47.058105%,67.451477%,20.783997%);fill-opacity:1;" d="M 156.664062 113.519531 L 156.664062 102.402344 L 165.050781 102.402344 L 165.050781 104.574219 L 159.09375 104.574219 L 159.09375 106.832031 L 164.335938 106.832031 L 164.335938 109.007812 L 159.09375 109.007812 L 159.09375 111.34375 L 165.132812 111.34375 L 165.132812 113.519531 L 156.664062 113.519531 "/>
<path style=" stroke:none;fill-rule:nonzero;fill:rgb(47.058105%,67.451477%,20.783997%);fill-opacity:1;" d="M 172.609375 105.261719 L 171.132812 108.867188 L 174.085938 108.867188 Z M 175.976562 113.519531 L 174.960938 111.027344 L 170.257812 111.027344 L 169.242188 113.519531 L 166.746094 113.519531 L 171.515625 102.320312 L 173.769531 102.320312 L 178.535156 113.519531 L 175.976562 113.519531 "/>
<path style=" stroke:none;fill-rule:nonzero;fill:rgb(47.058105%,67.451477%,20.783997%);fill-opacity:1;" d="M 180.640625 113.519531 L 180.640625 102.402344 L 183.085938 102.402344 L 183.085938 111.296875 L 188.628906 111.296875 L 188.628906 113.519531 L 180.640625 113.519531 "/>
<path style=" stroke:none;fill-rule:nonzero;fill:rgb(47.058105%,67.451477%,20.783997%);fill-opacity:1;" d="M 195.898438 104.65625 L 195.898438 113.519531 L 193.453125 113.519531 L 193.453125 104.65625 L 190.070312 104.65625 L 190.070312 102.402344 L 199.285156 102.402344 L 199.285156 104.65625 L 195.898438 104.65625 "/>
<path style=" stroke:none;fill-rule:nonzero;fill:rgb(47.058105%,67.451477%,20.783997%);fill-opacity:1;" d="M 208.507812 113.519531 L 208.507812 109.054688 L 203.996094 109.054688 L 203.996094 113.519531 L 201.550781 113.519531 L 201.550781 102.402344 L 203.996094 102.402344 L 203.996094 106.800781 L 208.507812 106.800781 L 208.507812 102.402344 L 210.953125 102.402344 L 210.953125 113.519531 L 208.507812 113.519531 "/>
<path style=" stroke:none;fill-rule:nonzero;fill:rgb(47.058105%,67.451477%,20.783997%);fill-opacity:1;" d="M 226.976562 113.519531 L 221.589844 106.449219 L 221.589844 113.519531 L 219.175781 113.519531 L 219.175781 102.402344 L 221.429688 102.402344 L 226.640625 109.246094 L 226.640625 102.402344 L 229.054688 102.402344 L 229.054688 113.519531 L 226.976562 113.519531 "/>
<path style=" stroke:none;fill-rule:nonzero;fill:rgb(47.058105%,67.451477%,20.783997%);fill-opacity:1;" d="M 232.117188 113.519531 L 232.117188 102.402344 L 240.503906 102.402344 L 240.503906 104.574219 L 234.546875 104.574219 L 234.546875 106.832031 L 239.789062 106.832031 L 239.789062 109.007812 L 234.546875 109.007812 L 234.546875 111.34375 L 240.582031 111.34375 L 240.582031 113.519531 L 232.117188 113.519531 "/>
<path style=" stroke:none;fill-rule:nonzero;fill:rgb(47.058105%,67.451477%,20.783997%);fill-opacity:1;" d="M 248.1875 104.65625 L 248.1875 113.519531 L 245.738281 113.519531 L 245.738281 104.65625 L 242.355469 104.65625 L 242.355469 102.402344 L 251.570312 102.402344 L 251.570312 104.65625 L 248.1875 104.65625 "/>
<path style=" stroke:none;fill-rule:nonzero;fill:rgb(47.058105%,67.451477%,20.783997%);fill-opacity:1;" d="M 266.050781 113.597656 L 263.925781 113.597656 L 261.414062 106.324219 L 258.902344 113.597656 L 256.777344 113.597656 L 252.980469 102.402344 L 255.601562 102.402344 L 257.902344 109.929688 L 260.398438 102.367188 L 262.492188 102.367188 L 264.988281 109.929688 L 267.289062 102.402344 L 269.847656 102.402344 L 266.050781 113.597656 "/>
<path style=" stroke:none;fill-rule:nonzero;fill:rgb(47.058105%,67.451477%,20.783997%);fill-opacity:1;" d="M 280.816406 107.957031 C 280.816406 106.054688 279.417969 104.464844 277.449219 104.464844 C 275.480469 104.464844 274.113281 106.023438 274.113281 107.925781 L 274.113281 107.957031 C 274.113281 109.867188 275.511719 111.453125 277.480469 111.453125 C 279.449219 111.453125 280.816406 109.898438 280.816406 107.992188 Z M 277.449219 113.710938 C 274.019531 113.710938 271.558594 111.152344 271.558594 107.992188 L 271.558594 107.957031 C 271.558594 104.800781 274.050781 102.210938 277.480469 102.210938 C 280.914062 102.210938 283.375 104.765625 283.375 107.925781 L 283.375 107.957031 C 283.375 111.121094 280.878906 113.710938 277.449219 113.710938 "/>
<path style=" stroke:none;fill-rule:nonzero;fill:rgb(47.058105%,67.451477%,20.783997%);fill-opacity:1;" d="M 292.738281 106.195312 C 292.738281 105.148438 292.007812 104.609375 290.820312 104.609375 L 288.390625 104.609375 L 288.390625 107.800781 L 290.867188 107.800781 C 292.058594 107.800781 292.738281 107.164062 292.738281 106.230469 Z M 292.691406 113.519531 L 290.308594 109.960938 L 288.390625 109.960938 L 288.390625 113.519531 L 285.941406 113.519531 L 285.941406 102.402344 L 291.023438 102.402344 C 293.644531 102.402344 295.21875 103.78125 295.21875 106.070312 L 295.21875 106.101562 C 295.21875 107.894531 294.25 109.023438 292.835938 109.546875 L 295.550781 113.519531 L 292.691406 113.519531 "/>
<path style=" stroke:none;fill-rule:nonzero;fill:rgb(47.058105%,67.451477%,20.783997%);fill-opacity:1;" d="M 304.996094 113.519531 L 301.550781 108.785156 L 300.265625 110.121094 L 300.265625 113.519531 L 297.816406 113.519531 L 297.816406 102.402344 L 300.265625 102.402344 L 300.265625 107.261719 L 304.773438 102.402344 L 307.730469 102.402344 L 303.203125 107.117188 L 307.9375 113.519531 L 304.996094 113.519531 "/>
</g>
</svg>
